<svg xmlns="http://www.w3.org/2000/svg" width="300" height="400" viewBox="0 0 300 400">
  <rect fill="#fefefe" width="300" height="400"/>
  <rect fill="#000" x="10" y="10" width="280" height="45" rx="4"/>

  <text x="150" y="40" text-anchor="middle" font-family="Arial" font-size="22" font-weight="bold" fill="white">Uber</text>

  <text x="150" y="75" text-anchor="middle" font-family="Arial" font-size="10" fill="#666">Trip Receipt</text>

  <text x="150" y="110" text-anchor="middle" font-family="Arial" font-size="28" font-weight="bold">$45.50</text>

  <text x="150" y="130" text-anchor="middle" font-family="Arial" font-size="10" fill="#666">January 15, 2026 at 9:23 AM</text>

  <line x1="30" y1="150" x2="270" y2="150" stroke="#eee"/>

  <circle cx="45" cy="180" r="8" fill="#333"/>
  <text x="65" y="175" font-family="Arial" font-size="9" fill="#666">PICKUP</text>
  <text x="65" y="190" font-family="Arial" font-size="11">JFK Terminal 4</text>

  <line x1="45" y1="195" x2="45" y2="225" stroke="#ddd" stroke-dasharray="4"/>

  <rect x="37" y="230" width="16" height="16" fill="#333" rx="2"/>
  <text x="65" y="235" font-family="Arial" font-size="9" fill="#666">DROPOFF</text>
  <text x="65" y="250" font-family="Arial" font-size="11">Marriott Chicago Downtown</text>

  <line x1="30" y1="275" x2="270" y2="275" stroke="#eee"/>

  <text x="30" y="300" font-family="Arial" font-size="11">Trip fare</text>
  <text x="250" y="300" font-family="Courier" font-size="11" text-anchor="end">$38.50</text>

  <text x="30" y="320" font-family="Arial" font-size="11">Booking fee</text>
  <text x="250" y="320" font-family="Courier" font-size="11" text-anchor="end">$3.50</text>

  <text x="30" y="340" font-family="Arial" font-size="11">Airport surcharge</text>
  <text x="250" y="340" font-family="Courier" font-size="11" text-anchor="end">$3.50</text>

  <line x1="30" y1="355" x2="270" y2="355" stroke="#333"/>

  <text x="30" y="380" font-family="Arial" font-size="14" font-weight="bold">Total</text>
  <text x="250" y="380" font-family="Courier" font-size="14" font-weight="bold" text-anchor="end">$45.50</text>

  <text x="150" y="398" text-anchor="middle" font-family="Arial" font-size="9" fill="#888">Paid with Visa ***4521</text>
</svg>
